<svg width="512" height="512" viewBox="0 0 512 512" fill="none" xmlns="http://www.w3.org/2000/svg">
  <defs>
    <linearGradient id="bg" x1="72" y1="56" x2="432" y2="464" gradientUnits="userSpaceOnUse">
      <stop stop-color="#111827"/>
      <stop offset="1" stop-color="#020617"/>
    </linearGradient>
    <radialGradient id="glow" cx="0" cy="0" r="1" gradientUnits="userSpaceOnUse" gradientTransform="translate(380 122) rotate(129.289) scale(272.977)">
      <stop stop-color="#60A5FA" stop-opacity="0.42"/>
      <stop offset="1" stop-color="#60A5FA" stop-opacity="0"/>
    </radialGradient>
    <linearGradient id="accent" x1="130" y1="132" x2="385" y2="383" gradientUnits="userSpaceOnUse">
      <stop stop-color="#7DD3FC"/>
      <stop offset="1" stop-color="#22C55E"/>
    </linearGradient>
    <filter id="shadow" x="92" y="108" width="328" height="304" filterUnits="userSpaceOnUse" color-interpolation-filters="sRGB">
      <feFlood flood-opacity="0" result="BackgroundImageFix"/>
      <feColorMatrix in="SourceAlpha" type="matrix" values="0 0 0 0 0 0 0 0 0 0 0 0 0 0 0 0 0 0 127 0" result="hardAlpha"/>
      <feOffset dy="16"/>
      <feGaussianBlur stdDeviation="18"/>
      <feComposite in2="hardAlpha" operator="out"/>
      <feColorMatrix type="matrix" values="0 0 0 0 0.0196078 0 0 0 0 0.0941176 0 0 0 0 0.203922 0 0 0 0.45 0"/>
      <feBlend mode="normal" in2="BackgroundImageFix" result="effect1_dropShadow_1_2"/>
      <feBlend mode="normal" in="SourceGraphic" in2="effect1_dropShadow_1_2" result="shape"/>
    </filter>
  </defs>

  <rect width="512" height="512" rx="128" fill="url(#bg)"/>
  <rect width="512" height="512" rx="128" fill="url(#glow)"/>
  <circle cx="416" cy="98" r="10" fill="#7DD3FC" fill-opacity="0.85"/>
  <circle cx="96" cy="408" r="8" fill="#22C55E" fill-opacity="0.8"/>

  <g filter="url(#shadow)">
    <path d="M142 162C142 145.431 155.431 132 172 132H340C356.569 132 370 145.431 370 162V350C370 366.569 356.569 380 340 380H172C155.431 380 142 366.569 142 350V162Z" fill="#0F172A" stroke="rgba(255,255,255,0.12)" stroke-width="4"/>
    <path d="M160 182C160 173.163 167.163 166 176 166H336C344.837 166 352 173.163 352 182V330C352 338.837 344.837 346 336 346H176C167.163 346 160 338.837 160 330V182Z" fill="#111827"/>
    <path d="M163 184.5L256 262L349 184.5" stroke="url(#accent)" stroke-width="22" stroke-linecap="round" stroke-linejoin="round"/>
    <path d="M165 330L227 268" stroke="#1E293B" stroke-width="14" stroke-linecap="round"/>
    <path d="M347 330L285 268" stroke="#1E293B" stroke-width="14" stroke-linecap="round"/>
    <circle cx="313" cy="285" r="48" fill="#020617" stroke="url(#accent)" stroke-width="14"/>
    <path d="M300 285C300 276.716 306.716 270 315 270H321C329.284 270 336 276.716 336 285V292C336 300.284 329.284 307 321 307H315C306.716 307 300 300.284 300 292V285Z" fill="#7DD3FC" fill-opacity="0.18" stroke="#7DD3FC" stroke-width="10"/>
    <path d="M321 307V329" stroke="#22C55E" stroke-width="12" stroke-linecap="round"/>
    <path d="M285 227L227 285" stroke="#7DD3FC" stroke-width="16" stroke-linecap="round" opacity="0.95"/>
  </g>
</svg>
