<svg width="1280" height="640" viewBox="0 0 1280 640" fill="none" xmlns="http://www.w3.org/2000/svg">
  <defs>
    <linearGradient id="bg" x1="40" y1="26" x2="1184" y2="672" gradientUnits="userSpaceOnUse">
      <stop stop-color="#020617"/>
      <stop offset="0.55" stop-color="#0F172A"/>
      <stop offset="1" stop-color="#111827"/>
    </linearGradient>
    <radialGradient id="spot1" cx="0" cy="0" r="1" gradientUnits="userSpaceOnUse" gradientTransform="translate(1020 102) rotate(141.984) scale(486.624 331.48)">
      <stop stop-color="#60A5FA" stop-opacity="0.28"/>
      <stop offset="1" stop-color="#60A5FA" stop-opacity="0"/>
    </radialGradient>
    <radialGradient id="spot2" cx="0" cy="0" r="1" gradientUnits="userSpaceOnUse" gradientTransform="translate(166 522) rotate(-10.4915) scale(390.746 250.259)">
      <stop stop-color="#22C55E" stop-opacity="0.22"/>
      <stop offset="1" stop-color="#22C55E" stop-opacity="0"/>
    </radialGradient>
    <linearGradient id="accent" x1="829" y1="158" x2="1084" y2="409" gradientUnits="userSpaceOnUse">
      <stop stop-color="#7DD3FC"/>
      <stop offset="1" stop-color="#22C55E"/>
    </linearGradient>
  </defs>
  <rect width="1280" height="640" rx="40" fill="url(#bg)"/>
  <rect width="1280" height="640" rx="40" fill="url(#spot1)"/>
  <rect width="1280" height="640" rx="40" fill="url(#spot2)"/>

  <circle cx="1089" cy="118" r="10" fill="#7DD3FC"/>
  <circle cx="140" cy="158" r="7" fill="#22C55E"/>
  <circle cx="1178" cy="510" r="7" fill="#22C55E"/>

  <text x="94" y="208" fill="#E5EEF8" font-family="Inter, ui-sans-serif, system-ui, -apple-system, BlinkMacSystemFont, 'Segoe UI', sans-serif" font-size="92" font-weight="800" letter-spacing="-3">MailHush</text>
  <text x="96" y="270" fill="#9CB0C4" font-family="Inter, ui-sans-serif, system-ui, -apple-system, BlinkMacSystemFont, 'Segoe UI', sans-serif" font-size="36" font-weight="500">Replace visible email addresses with custom phrases while preserving layout and styling.</text>

  <rect x="96" y="332" width="208" height="50" rx="25" fill="#0F172A" stroke="#1E293B"/>
  <circle cx="128" cy="357" r="8" fill="#22C55E"/>
  <text x="148" y="367" fill="#D8E4F0" font-family="Inter, ui-sans-serif, system-ui, -apple-system, BlinkMacSystemFont, 'Segoe UI', sans-serif" font-size="24" font-weight="700">browser extension</text>

  <text x="96" y="442" fill="#DDE7F3" font-family="ui-monospace, SFMono-Regular, Menlo, Monaco, Consolas, 'Liberation Mono', monospace" font-size="28">hello@example.com</text>
  <path d="M412 432H510" stroke="#334155" stroke-width="8" stroke-linecap="round"/>
  <text x="548" y="442" fill="#86EFAC" font-family="ui-monospace, SFMono-Regular, Menlo, Monaco, Consolas, 'Liberation Mono', monospace" font-size="28">team inbox</text>

  <rect x="738" y="96" width="430" height="430" rx="90" fill="#0B1120" stroke="#1E293B" stroke-width="2"/>
  <path d="M814 178C814 163.641 825.641 152 840 152H1066C1080.36 152 1092 163.641 1092 178V384C1092 398.359 1080.36 410 1066 410H840C825.641 410 814 398.359 814 384V178Z" fill="#0F172A"/>
  <path d="M839 200L953 295L1067 200" stroke="url(#accent)" stroke-width="24" stroke-linecap="round" stroke-linejoin="round"/>
  <path d="M842 386L919 309" stroke="#1E293B" stroke-width="16" stroke-linecap="round"/>
  <path d="M1064 386L987 309" stroke="#1E293B" stroke-width="16" stroke-linecap="round"/>
  <circle cx="1024" cy="321" r="60" fill="#020617" stroke="url(#accent)" stroke-width="16"/>
  <path d="M1008 321C1008 310.507 1016.51 302 1027 302H1034C1044.49 302 1053 310.507 1053 321V330C1053 340.493 1044.49 349 1034 349H1027C1016.51 349 1008 340.493 1008 330V321Z" fill="#7DD3FC" fill-opacity="0.18" stroke="#7DD3FC" stroke-width="12"/>
  <path d="M1034 349V378" stroke="#22C55E" stroke-width="14" stroke-linecap="round"/>
  <path d="M989 248L914 323" stroke="#7DD3FC" stroke-width="18" stroke-linecap="round"/>
</svg>
